D:\school\WTK\thesis\model\3dpredictsim\Results\batch_windlass\Pog_s1_tmt_bCst_d05_k500_WL10_ig24_pas_GRF.mot
nRows=30
nColumns=19

name D:\school\WTK\thesis\model\3dpredictsim\Results\batch_windlass\Pog_s1_tmt_bCst_d05_k500_WL10_ig24_pas_GRF.mot
datacolumns 19
datarows 30
range 0.0000000000 0.3144240538
endheader
time 	ground_force_vx	ground_force_vy	ground_force_vz	ground_force_px	ground_force_py	ground_force_pz	1_ground_force_vx	1_ground_force_vy	1_ground_force_vz	1_ground_force_px	1_ground_force_py	1_ground_force_pz	ground_torque_x	ground_torque_y	ground_torque_z	1_ground_torque_x	1_ground_torque_y	1_ground_torque_z
        0.0000000000	      -82.0410688512	       58.1338703668	       20.3076429444	        0.1399827301	        0.0000000000	        0.0416094625	      108.3269308767	      505.9662499549	       -1.7888422633	       -0.3283998183	        0.0000000000	       -0.0364954260	        0.0000000000	        0.0000000000	        0.0000000000	        0.0000000000	        0.0000000000	        0.0000000000	
        0.0108422088	     -127.1902221154	      114.0682513448	       41.8947447851	        0.1520597064	        0.0000000000	        0.0394134552	       91.3641600654	      421.6799435923	       -5.7885302344	       -0.3243802606	        0.0000000000	       -0.0352437926	        0.0000000000	        0.0000000000	        0.0000000000	        0.0000000000	        0.0000000000	        0.0000000000	
        0.0216844175	     -114.1525909337	      232.6280802242	       63.0021032171	        0.1647394131	        0.0000000000	        0.0396865183	       65.0513855055	      328.6550019023	      -13.1665126318	       -0.3182153238	        0.0000000000	       -0.0329714642	        0.0000000000	        0.0000000000	        0.0000000000	        0.0000000000	        0.0000000000	        0.0000000000	
        0.0325266263	      -64.4432244887	      469.2786369518	       10.8920734100	        0.1756418889	        0.0000000000	        0.0408978274	       34.6847571379	      229.1637658038	      -10.8352106744	       -0.3074488992	        0.0000000000	       -0.0279985057	        0.0000000000	        0.0000000000	        0.0000000000	        0.0000000000	        0.0000000000	        0.0000000000	
        0.0433688350	      -77.4907212488	      678.1704366070	       -8.6061681713	        0.1836614038	        0.0000000000	        0.0418912423	       13.5069842252	      157.9380158032	      -11.0847460482	       -0.2938631627	        0.0000000000	       -0.0207779819	        0.0000000000	        0.0000000000	        0.0000000000	        0.0000000000	        0.0000000000	        0.0000000000	
        0.0542110438	     -106.6258584121	      818.1034558848	      -14.4175848846	        0.1919856994	        0.0000000000	        0.0419700710	        5.3757361660	      130.7303229543	      -11.6446208237	       -0.2942427660	        0.0000000000	       -0.0210571878	        0.0000000000	        0.0000000000	        0.0000000000	        0.0000000000	        0.0000000000	        0.0000000000	
        0.0650532525	     -121.7427828595	      894.2342899461	      -13.2398270179	        0.2011260550	        0.0000000000	        0.0412964000	        3.1354495242	       93.4120682645	      -12.1918681618	       -0.2936914914	        0.0000000000	       -0.0212032624	        0.0000000000	        0.0000000000	        0.0000000000	        0.0000000000	        0.0000000000	        0.0000000000	
        0.0758954613	     -121.7903966602	      886.1300895325	      -10.7011280447	        0.2069422501	        0.0000000000	        0.0407409911	       -5.2045243935	       51.6933280422	      -10.0452237150	       -0.2938457987	        0.0000000000	       -0.0213019801	        0.0000000000	        0.0000000000	        0.0000000000	        0.0000000000	        0.0000000000	        0.0000000000	
        0.0867376700	     -107.9571146404	      846.6200207315	       -9.1260744516	        0.2104889346	        0.0000000000	        0.0402999657	       -4.0443873262	        7.1806149226	       -1.7019122436	        0.0000000000	        0.0000000000	        0.0000000000	        0.0000000000	        0.0000000000	        0.0000000000	        0.0000000000	        0.0000000000	        0.0000000000	
        0.0975798788	      -93.4676440008	      802.9910421109	      -10.5938670594	        0.2137209706	        0.0000000000	        0.0399497895	        0.0014742012	       -0.0013724454	        0.0000376848	        0.0000000000	        0.0000000000	        0.0000000000	        0.0000000000	        0.0000000000	        0.0000000000	        0.0000000000	        0.0000000000	        0.0000000000	
        0.1084220875	      -79.5505372965	      760.4912820215	      -12.1010909688	        0.2169199390	        0.0000000000	        0.0397166001	        0.0000226592	       -0.0000175667	       -0.0000008056	        0.0000000000	        0.0000000000	        0.0000000000	        0.0000000000	        0.0000000000	        0.0000000000	        0.0000000000	        0.0000000000	        0.0000000000	
        0.1192642963	      -67.2194782899	      721.9954655100	      -12.8829625944	        0.2202176013	        0.0000000000	        0.0395874376	        0.0000213590	       -0.0000144278	       -0.0000012139	        0.0000000000	        0.0000000000	        0.0000000000	        0.0000000000	        0.0000000000	        0.0000000000	        0.0000000000	        0.0000000000	        0.0000000000	
        0.1301065050	      -56.1980286032	      688.4120426178	      -13.7212399552	        0.2237762524	        0.0000000000	        0.0395349658	        0.0004302292	       -0.0002618133	       -0.0000293380	        0.0000000000	        0.0000000000	        0.0000000000	        0.0000000000	        0.0000000000	        0.0000000000	        0.0000000000	        0.0000000000	        0.0000000000	
        0.1409487138	      -46.8173028510	      660.2813353394	      -15.1993836884	        0.2282836528	        0.0000000000	        0.0395101117	        0.0023146649	       -0.0012987710	       -0.0001756375	        0.0000000000	        0.0000000000	        0.0000000000	        0.0000000000	        0.0000000000	        0.0000000000	        0.0000000000	        0.0000000000	        0.0000000000	
        0.1517909225	      -40.0809082968	      638.1038045076	      -16.6453338555	        0.2336433514	        0.0000000000	        0.0394881871	       -0.0186457533	        0.0098072705	        0.0015348568	        0.0000000000	        0.0000000000	        0.0000000000	        0.0000000000	        0.0000000000	        0.0000000000	        0.0000000000	        0.0000000000	        0.0000000000	
        0.1626331313	      -34.9391228285	      620.8901707241	      -17.4887791998	        0.2392801425	        0.0000000000	        0.0394711210	       -0.0123612947	        0.0061597242	        0.0010852789	        0.0000000000	        0.0000000000	        0.0000000000	        0.0000000000	        0.0000000000	        0.0000000000	        0.0000000000	        0.0000000000	        0.0000000000	
        0.1734753400	      -30.6021621390	      608.0082894131	      -18.0574184289	        0.2451936224	        0.0000000000	        0.0394431899	       -0.0085129517	        0.0040496996	        0.0007818059	        0.0000000000	        0.0000000000	        0.0000000000	        0.0000000000	        0.0000000000	        0.0000000000	        0.0000000000	        0.0000000000	        0.0000000000	
        0.1843175488	      -27.3107887344	      598.2902697662	      -18.2453716112	        0.2511961018	        0.0000000000	        0.0394039704	       -0.0074655288	        0.0034118131	        0.0007070354	        0.0000000000	        0.0000000000	        0.0000000000	        0.0000000000	        0.0000000000	        0.0000000000	        0.0000000000	        0.0000000000	        0.0000000000	
        0.1951597576	      -24.6347316042	      591.0379203058	      -17.9953677120	        0.2570740940	        0.0000000000	        0.0393604647	       -0.0086017074	        0.0037956250	        0.0008265585	        0.0000000000	        0.0000000000	        0.0000000000	        0.0000000000	        0.0000000000	        0.0000000000	        0.0000000000	        0.0000000000	        0.0000000000	
        0.2060019663	      -22.2248718355	      585.8469992110	      -17.6845829983	        0.2628809207	        0.0000000000	        0.0393031789	       -0.0126619184	        0.0054162573	        0.0012209093	        0.0000000000	        0.0000000000	        0.0000000000	        0.0000000000	        0.0000000000	        0.0000000000	        0.0000000000	        0.0000000000	        0.0000000000	
        0.2168441751	      -20.9014906872	      582.4321996904	      -17.2645977709	        0.2685176405	        0.0000000000	        0.0392349440	       -0.0224264720	        0.0093326425	        0.0021556026	        0.0000000000	        0.0000000000	        0.0000000000	        0.0000000000	        0.0000000000	        0.0000000000	        0.0000000000	        0.0000000000	        0.0000000000	
        0.2276863838	      -19.7118215186	      579.6839421648	      -16.8093092507	        0.2738407107	        0.0000000000	        0.0391693452	       -0.0443372408	        0.0180113535	        0.0042296237	        0.0000000000	        0.0000000000	        0.0000000000	        0.0000000000	        0.0000000000	        0.0000000000	        0.0000000000	        0.0000000000	        0.0000000000	
        0.2385285926	      -18.0479187954	      576.5923064495	      -16.3642014562	        0.2789187467	        0.0000000000	        0.0391059985	       -0.0906939469	        0.0360882391	        0.0085582720	        0.0000000000	        0.0000000000	        0.0000000000	        0.0000000000	        0.0000000000	        0.0000000000	        0.0000000000	        0.0000000000	        0.0000000000	
        0.2493708013	      -15.9300526716	      572.7325637374	      -16.2710192736	        0.2838159738	        0.0000000000	        0.0390388426	       -0.1800166199	        0.0703946858	        0.0167720848	        0.0000000000	        0.0000000000	        0.0000000000	        0.0000000000	        0.0000000000	        0.0000000000	        0.0000000000	        0.0000000000	        0.0000000000	
        0.2602130101	      -13.4318895237	      568.2004944778	      -16.3492912551	        0.2886340273	        0.0000000000	        0.0389594861	       -0.3304914114	        0.1274166390	        0.0303727174	        0.0000000000	        0.0000000000	        0.0000000000	        0.0000000000	        0.0000000000	        0.0000000000	        0.0000000000	        0.0000000000	        0.0000000000	
        0.2710552188	      -10.6960381452	      563.0696948519	      -16.3084122763	        0.2933839060	        0.0000000000	        0.0388666403	       -0.5426727129	        0.2069275445	        0.0490333923	        0.0000000000	        0.0000000000	        0.0000000000	        0.0000000000	        0.0000000000	        0.0000000000	        0.0000000000	        0.0000000000	        0.0000000000	
        0.2818974276	       -7.6370303195	      557.3696410303	      -16.0678054399	        0.2980762760	        0.0000000000	        0.0387568418	       -0.7886940586	        0.2982824032	        0.0695835835	        0.0000000000	        0.0000000000	        0.0000000000	        0.0000000000	        0.0000000000	        0.0000000000	        0.0000000000	        0.0000000000	        0.0000000000	
        0.2927396363	       -4.0508316817	      551.0663222072	      -15.3249543673	        0.3027041186	        0.0000000000	        0.0386321808	       -1.0250100992	        0.3853335480	        0.0873271365	        0.0000000000	        0.0000000000	        0.0000000000	        0.0000000000	        0.0000000000	        0.0000000000	        0.0000000000	        0.0000000000	        0.0000000000	
        0.3035818451	       -0.0140186628	      544.4850665442	      -13.9327278114	        0.3072595156	        0.0000000000	        0.0384916819	       -1.2236880713	        0.4578698200	        0.0987591720	        0.0000000000	        0.0000000000	        0.0000000000	        0.0000000000	        0.0000000000	        0.0000000000	        0.0000000000	        0.0000000000	        0.0000000000	
        0.3144240538	        4.0230321254	      538.7346509867	      -11.8938055224	        0.3116754967	        0.0000000000	        0.0383382449	       -1.3852808348	        0.5163260576	        0.1031050795	        0.0000000000	        0.0000000000	        0.0000000000	        0.0000000000	        0.0000000000	        0.0000000000	        0.0000000000	        0.0000000000	        0.0000000000	
